# xmcd
#
# Track frame offsets: 
#        150
#        23187
#        38692
#        56597
#        76430
#        91410
#        110625
#        137890
#        156160
#        176402
#        192972
#        210005
#
# Disc length: 3040 seconds
#
# Revision: 2
# Processed by: cddbd v1.5.2PL0 Copyright (c) Steve Scherf et al.
# Submitted via: ExactAudioCopy v0.99pb4
#
DISCID=970bde0c
DTITLE=Roberto Carlos - Brazil
DYEAR=1990
DGENRE=Pop
TTITLE0=Roberto Carlos - Na Paz Do Seu Sorriso
TTITLE1=Roberto Carlos - Meu Qurido, Meu Velho, Meu Amigo
TTITLE2=Roberto Carlos - Amada, Amante
TTITLE3=Roberto Carlos - Confissao
TTITLE4=Roberto Carlos - Cama E Mesa
TTITLE5=Roberto Carlos - Se O Amor Se Vai
TTITLE6=Roberto Carlos - A Guerra Dos Meninos
TTITLE7=Roberto Carlos - Lady Laura
TTITLE8=Roberto Carlos - Ele Esta Pra Chegar
TTITLE9=Roberto Carlos - Desabafo
TTITLE10=Roberto Carlos - Fe
TTITLE11=Roberto Carlos - As Vezes Penso
EXTD=
EXTT0=
EXTT1=
EXTT2=
EXTT3=
EXTT4=
EXTT5=
EXTT6=
EXTT7=
EXTT8=
EXTT9=
EXTT10=
EXTT11=
PLAYORDER=
